<svg viewBox="0 0 36 54" xmlns="http://www.w3.org/2000/svg"><path d="m0 0h36v54h-36z" fill="none"/><path d="m8.5 41v7.67a1.438 1.438 0 0 0 1.251 1.33h1.43a1.5 1.5 0 0 0 1.32-1.53v-8.47a10.567 10.567 0 0 1 -4 .77zm3.73-14a8.155 8.155 0 0 0 -4.5 1.28 11.057 11.057 0 0 0 -3.35 2.86 6.078 6.078 0 0 1 2.12 1 5.937 5.937 0 0 1 1.71 1.78 6.689 6.689 0 0 1 1.23 3 4.78 4.78 0 0 1 0 1.8 3.543 3.543 0 0 1 -.19.71 11.708 11.708 0 0 0 3.37-.79l.28-.16a13.481 13.481 0 0 0 2.38-1.87l.1-.12a5.582 5.582 0 0 0 1.6-3.41 6.423 6.423 0 0 0 -1.15-4c-1.56-1.88-2.88-2.08-3.59-2.08zm2.27 4.24-2.16 1.56a.871.871 0 0 1 -1.217-.185v-.005a.964.964 0 0 1 .19-1.29l2.12-1.57a.884.884 0 0 1 1.216.25.89.89 0 0 1 -.149 1.24zm-5.9 6a6.736 6.736 0 0 0 -1.35-3 5.63 5.63 0 0 0 -1.38-1.51 3.34 3.34 0 0 0 -1.55-.64 2.291 2.291 0 0 0 -1.29.16 4.4 4.4 0 0 0 -2.179 2.25 4.729 4.729 0 0 0 -.351 1.5 3.918 3.918 0 0 0 .13 1.2 4.323 4.323 0 0 0 .19.54 5.97 5.97 0 0 0 .68 1.17 5.527 5.527 0 0 0 1.19 1.28 4.1 4.1 0 0 0 2.81.81 3.818 3.818 0 0 0 1.59-.42 2.323 2.323 0 0 0 1.13-1 3.417 3.417 0 0 0 .38-2.32zm-4.67 2.2a2.678 2.678 0 0 1 -1.72-1.26 2.676 2.676 0 0 1 -.54-2c.14-.46.67-.45 1 0l1.64 2.26c.251.47.061 1.04-.379 1zm23.57 1.56v-.24a10.558 10.558 0 0 1 -4-.76v8.47a1.5 1.5 0 0 0 1.321 1.53h1.43a1.44 1.44 0 0 0 1.25-1.31zm-1-2.25a4.767 4.767 0 0 1 0-1.75 6.677 6.677 0 0 1 1.23-3 5.921 5.921 0 0 1 1.77-1.86 6.078 6.078 0 0 1 2.12-1 11.069 11.069 0 0 0 -3.35-2.86 8.155 8.155 0 0 0 -4.509-1.28c-.72 0-2 .19-3.61 2.08a6.417 6.417 0 0 0 -1.15 4 5.577 5.577 0 0 0 1.6 3.41l.1.12a13.408 13.408 0 0 0 2.38 1.87l.28.16a11.7 11.7 0 0 0 3.37.79 3.511 3.511 0 0 1 -.23-.67zm-1.61-6.15a.87.87 0 0 1 -1.215.194l-2.175-1.554a.889.889 0 0 1 -.16-1.24.884.884 0 0 1 1.215-.254l2.12 1.57a.89.89 0 0 1 .24 1.23zm10.23 1.94a4.411 4.411 0 0 0 -2.15-2.22 2.293 2.293 0 0 0 -1.29-.16 3.331 3.331 0 0 0 -1.55.64 5.6 5.6 0 0 0 -1.38 1.51 6.714 6.714 0 0 0 -1.35 3 3.394 3.394 0 0 0 .36 2.32 2.314 2.314 0 0 0 1.13 1 3.8 3.8 0 0 0 1.61.37 4.1 4.1 0 0 0 2.8-.8 5.554 5.554 0 0 0 1.2-1.29 6.057 6.057 0 0 0 .67-1.17 4.671 4.671 0 0 0 .19-.54 3.95 3.95 0 0 0 .14-1.2 4.566 4.566 0 0 0 -.38-1.46zm-1.33 3.68a2.739 2.739 0 0 1 -1.75 1.26c-.44 0-.63-.53-.34-1l1.64-2.26c.29-.48.82-.49 1 0a2.685 2.685 0 0 1 -.55 2z" fill="#fff"/></svg>