<svg viewBox="0 0 27 54" xmlns="http://www.w3.org/2000/svg"><path d="m0 0h27v54h-27z" fill="none"/><g fill="#fff"><path d="m20.51 48.7a1.531 1.531 0 0 1 -1.37 1.33h-1.61a1.579 1.579 0 0 1 -1.45-1.51v-14.486a6.939 6.939 0 0 0 4.43 1.22z"/><path d="m14.39 28.284c0 3.18 3.12 6.02 6.739 5.75a6.361 6.361 0 0 0 5.271-3.07c.5-.8.5-1.02.5-2.87 0-1.37.12-1.85-.48-2.51-1.4-1.47-2.91-2.97-5.291-3.06-3.619-.13-6.739 2.576-6.739 5.76zm9.83-1.67a.6.6 0 0 1 1.19 0v3.42a.6.6 0 0 1 -1.19 0zm-6.72 1.645a.936.936 0 0 1 .936-.935h1.879a.935.935 0 0 1 0 1.87h-1.88a.936.936 0 0 1 -.935-.935z"/><path d="m5.871 22.529c-2.381.09-3.891 1.59-5.291 3.06-.6.66-.48 1.14-.48 2.51 0 1.85 0 2.07.5 2.87a6.361 6.361 0 0 0 5.271 3.07c3.619.27 6.739-2.57 6.739-5.75s-3.12-5.889-6.739-5.76zm-3.091 7.51a.6.6 0 0 1 -1.19 0v-3.42a.6.6 0 0 1 1.19 0zm5.785-.84h-1.879a.935.935 0 1 1 0-1.87h1.879a.935.935 0 1 1 0 1.87z"/><path d="m6.49 48.709a1.531 1.531 0 0 0 1.37 1.33h1.61a1.579 1.579 0 0 0 1.45-1.51v-14.49a6.945 6.945 0 0 1 -4.43 1.22z"/></g></svg>