<svg xmlns="http://www.w3.org/2000/svg" viewBox="0 0 17 54"><title>beats_large_</title><rect width="17" height="54" fill="none"/><path d="M12.34,34.67a3.59,3.59,0,0,0,.15.37c.06.13.13.26.2.42a9,9,0,0,0,.47.79c.18.28.38.57.58.85l.33.47c.1.15.2.29.28.42a7.22,7.22,0,0,1,.91,1.9A6.94,6.94,0,0,1,15.57,42a7.05,7.05,0,0,1-14.1,0,7.27,7.27,0,0,1,.31-2.08A7,7,0,0,1,2.68,38l.3-.45.32-.47c.2-.28.41-.57.59-.85a8.76,8.76,0,0,0,.46-.79l.2-.42.16-.37A8.25,8.25,0,1,0,16.77,42a8.25,8.25,0,0,0-4.43-7.31Z" fill="#fff"/><path d="M13.65,38.47c-.26-.39-.58-.84-.9-1.3a11.27,11.27,0,0,1-.82-1.34,6.54,6.54,0,0,1-.47-1.12,5.88,5.88,0,0,1-.16-1.51c0-.57,0-2.14,0-3.88s0-3.64,0-4.89h0s0-1.8,0-3.63-.07-3.67-.14-3.82A12.32,12.32,0,0,0,6,17a33.61,33.61,0,0,0-.14,3.82c0,1.83,0,3.63,0,3.63h0c0,1.25,0,3.16,0,4.89s0,3.31,0,3.88a5.41,5.41,0,0,1-.17,1.51,5.26,5.26,0,0,1-.47,1.12,10.09,10.09,0,0,1-.82,1.34c-.31.46-.64.91-.89,1.3a6.06,6.06,0,0,0-.79,1.64A6,6,0,0,0,2.32,42a6.2,6.2,0,1,0,12.4,0,6.29,6.29,0,0,0-.28-1.86A6.37,6.37,0,0,0,13.65,38.47ZM8.52,46.23A4.27,4.27,0,0,1,4.27,42a4.19,4.19,0,0,1,2.11-3.65v3.08c0,.17,0,.33,0,.49a2.85,2.85,0,0,0,.06.49,1.9,1.9,0,0,0,.15.46,1.79,1.79,0,0,0,.25.42,2.11,2.11,0,0,0,.75.61,2,2,0,0,0,.94.22,2.09,2.09,0,0,0,1.2-.38,2.13,2.13,0,0,0,.78-1,2.07,2.07,0,0,0,.08-1.25A2.16,2.16,0,0,0,10,40.39,2.07,2.07,0,0,0,9.34,40a2,2,0,0,0-.72-.16A2.18,2.18,0,0,0,7.9,40a1.91,1.91,0,0,0-.64.38h0v-2.4a4.18,4.18,0,0,1,.61-.15,3.57,3.57,0,0,1,.65-.06,4.25,4.25,0,0,1,0,8.5ZM7.27,42a1.27,1.27,0,0,1,2.17-.91,1.24,1.24,0,0,1,.38.9,1.27,1.27,0,0,1-.37.9,1.24,1.24,0,0,1-.9.38A1.28,1.28,0,0,1,7.27,42Z" fill="#fff"/></svg>